Note On: A-3 @0.0[0]
Note On: E-4 @0.0[0]
Note On: A-4 @0.0[0]
Note Off: A-4 @0.39583334[38]
Note Off: A-3 @3.34375[321]
Note Off: E-4 @3.9479167[379]
Note On: A-3 @5.0104165[481]
Note Off: A-3 @5.8958335[566]
Note On: A-3 @7.15625[687]
Note On: E-4 @7.25[696]
Note Off: A-3 @7.4375[714]
Note Off: E-4 @8.166667[784]
Note On: A-3 @8.260417[793]
Note Off: A-3 @8.833333[848]
Note On: E-4 @9.0625[870]
Note Off: E-4 @9.520833[914]
Note On: A-3 @9.708333[932]
Note Off: A-3 @10.09375[969]
Note On: E-4 @10.541667[1012]
Note On: A-3 @11.458333[1100]
Note Off: E-4 @15.46875[1485]
Note Off: A-3 @16.052084[1541]
Note On: E-4 @17.354166[1666]
Note Off: E-4 @17.822916[1711]
Note On: A-3 @17.989584[1727]
Note Off: A-3 @18.385416[1765]
Note On: E-4 @18.614584[1787]
Note Off: E-4 @19.03125[1827]
Note On: A-3 @19.208334[1844]
Note Off: A-3 @19.5[1872]
Note On: E-4 @19.770834[1898]
Note Off: E-4 @20.125[1932]
Note On: A-3 @20.3125[1950]
Note Off: A-3 @20.604166[1978]
Note On: E-4 @20.875[2004]
Note Off: E-4 @21.197916[2035]
Note On: A-3 @21.40625[2055]
Note Off: A-3 @21.729166[2086]
Note On: E-4 @21.96875[2109]
Note Off: E-4 @22.333334[2144]
Note On: A-3 @22.520834[2162]
Note Off: A-3 @22.78125[2187]
Note On: E-4 @23.083334[2216]
Note Off: E-4 @23.395834[2246]
Note On: A-3 @23.59375[2265]
Note Off: A-3 @23.979166[2302]
Note On: E-4 @24.177084[2321]
Note Off: E-4 @24.5625[2358]
Note On: A-3 @24.75[2376]
Note Off: A-3 @25.083334[2408]
Note On: E-4 @25.291666[2428]
Note Off: E-4 @25.635416[2461]
Note On: A-3 @25.833334[2480]
Note Off: A-3 @26.15625[2511]
Note On: E-4 @26.395834[2534]
Note Off: E-4 @26.71875[2565]
Note On: A-3 @26.927084[2585]
Note Off: A-3 @27.229166[2614]
Note On: E-4 @27.479166[2638]
Note Off: E-4 @27.8125[2670]
Note On: A-3 @28.041666[2692]
Note Off: A-3 @28.322916[2719]
Note On: E-4 @28.59375[2745]
Note Off: E-4 @28.958334[2780]
Note On: A-3 @29.145834[2798]
Note Off: A-3 @29.458334[2828]
Note On: E-4 @29.71875[2853]
Note Off: E-4 @30.03125[2883]
Note On: A-3 @30.270834[2906]
Note Off: A-3 @30.5[2928]
Note On: E-4 @30.822916[2959]
Note Off: E-4 @31.166666[2992]
Note On: A-3 @31.375[3012]
Note Off: A-3 @31.604166[3034]
Note On: E-4 @31.916666[3064]
Note Off: E-4 @32.25[3096]
Note On: A-3 @32.458332[3116]
Note Off: A-3 @32.78125[3147]
Note On: E-4 @33.03125[3171]
Note Off: E-4 @33.375[3204]
Note On: A-3 @33.572918[3223]
Note Off: A-3 @33.916668[3256]
Note On: E-4 @34.114582[3275]
Note Off: E-4 @34.489582[3311]
Note On: A-3 @34.6875[3330]
Note Off: A-3 @34.9375[3354]
Note On: E-4 @35.25[3384]
Note Off: E-4 @35.541668[3412]
Note On: A-3 @35.791668[3436]
Note Off: A-3 @36.072918[3463]
Note On: E-4 @36.333332[3488]
Note Off: E-4 @36.6875[3522]
Note On: A-3 @36.875[3540]
Note Off: A-3 @37.21875[3573]
Note On: E-4 @37.447918[3595]
Note Off: E-4 @37.760418[3625]
Note On: A-3 @38.0[3648]
Note Off: A-3 @38.3125[3678]
Note On: E-4 @38.552082[3701]
Note Off: E-4 @38.875[3732]
Note On: A-3 @39.104168[3754]
Note Off: A-3 @39.416668[3784]
Note On: E-4 @39.65625[3807]
Note Off: E-4 @40.010418[3841]
Note On: A-3 @40.197918[3859]
Note Off: A-3 @40.520832[3890]
Note On: E-4 @40.760418[3913]
Note Off: E-4 @41.125[3948]
Note On: A-3 @41.3125[3966]
Note Off: A-3 @41.666668[4000]
Note On: E-4 @41.875[4020]
Note Off: E-4 @42.21875[4053]
Note On: A-3 @42.416668[4072]
Note Off: A-3 @42.697918[4099]
Note On: E-4 @42.979168[4126]
Note Off: E-4 @43.302082[4157]
Note On: A-3 @43.520832[4178]
Note Off: A-3 @43.8125[4206]
Note On: E-4 @44.072918[4231]
Note Off: E-4 @44.385418[4261]
Note On: A-3 @44.614582[4283]
Note Off: A-3 @44.916668[4312]
Note On: E-4 @45.15625[4335]
Note Off: E-4 @45.5[4368]
Note On: A-3 @45.708332[4388]
Note Off: A-3 @45.979168[4414]
Note On: E-4 @46.270832[4442]
Note Off: E-4 @46.604168[4474]
Note On: A-3 @46.833332[4496]
Note Off: A-3 @47.145832[4526]
Note On: E-4 @47.385418[4549]
Note Off: E-4 @47.739582[4583]
Note On: A-3 @47.9375[4602]
Note Off: A-3 @48.28125[4635]
Note On: E-4 @48.5[4656]
Note Off: E-4 @48.822918[4687]
Note On: A-3 @49.052082[4709]
Note Off: A-3 @49.3125[4734]
Note On: E-4 @49.604168[4762]
Note Off: E-4 @49.9375[4794]
Note On: A-3 @50.166668[4816]
Note Off: A-3 @50.416668[4840]
Note On: E-4 @50.71875[4869]
Note Off: E-4 @51.0625[4902]
Note On: A-3 @51.270832[4922]
Note Off: A-3 @51.604168[4954]
Note On: E-4 @51.833332[4976]
Note Off: E-4 @52.166668[5008]
Note On: A-3 @52.385418[5029]
Note Off: A-3 @52.760418[5065]
Note On: E-4 @52.958332[5084]
Note Off: E-4 @53.302082[5117]
Note On: A-3 @53.520832[5138]
Note Off: A-3 @53.84375[5169]
Note On: E-4 @54.083332[5192]
Note Off: E-4 @54.4375[5226]
Note On: A-3 @54.645832[5246]
Note Off: A-3 @55.010418[5281]
Note On: E-4 @55.229168[5302]
Note Off: E-4 @55.552082[5333]
Note On: A-3 @55.760418[5353]
Note Off: A-3 @56.09375[5385]
Note On: E-4 @56.322918[5407]
Note Off: E-4 @56.677082[5441]
Note On: A-3 @56.885418[5461]
Note Off: A-3 @57.21875[5493]
Note On: E-4 @57.458332[5516]
Note Off: E-4 @57.791668[5548]
Note On: A-3 @58.020832[5570]
Note Off: A-3 @58.354168[5602]
Note On: E-4 @58.572918[5623]
Note Off: E-4 @58.916668[5656]
Note On: A-3 @59.135418[5677]
Note Off: A-3 @59.40625[5703]
Note On: E-4 @59.697918[5731]
Note Off: E-4 @60.03125[5763]
Note On: A-3 @60.239582[5783]
Note Off: A-3 @60.5625[5814]
Note On: E-4 @60.8125[5838]
Note Off: E-4 @61.145832[5870]
Note On: A-3 @61.364582[5891]
Note Off: A-3 @61.708332[5924]
Note On: E-4 @61.9375[5946]
Note Off: E-4 @62.260418[5977]
Note On: A-3 @62.479168[5998]
Note Off: A-3 @62.822918[6031]
Note On: E-4 @63.052082[6053]
Note Off: E-4 @63.395832[6086]
Note On: A-3 @63.604168[6106]
Note Off: A-3 @63.875[6132]
Note On: E-4 @64.166664[6160]
Note Off: E-4 @64.5[6192]
Note On: A-3 @64.708336[6212]
Note Off: A-3 @64.979164[6238]
Note On: E-4 @65.25[6264]
Note Off: E-4 @65.614586[6299]
Note On: A-3 @65.802086[6317]
Note Off: A-3 @66.145836[6350]
Note On: E-4 @66.364586[6371]
Note Off: E-4 @66.71875[6405]
Note On: A-3 @66.916664[6424]
Note Off: A-3 @67.260414[6457]
Note On: E-4 @67.5[6480]
Note Off: E-4 @67.791664[6508]
Note On: A-3 @68.041664[6532]
Note Off: A-3 @68.333336[6560]
Note On: E-4 @68.583336[6584]
Note Off: E-4 @68.958336[6620]
Note On: A-3 @69.15625[6639]
Note Off: A-3 @69.479164[6670]
Note On: E-4 @69.708336[6692]
Note Off: E-4 @70.041664[6724]
Note On: A-3 @70.25[6744]
Note Off: A-3 @70.541664[6772]
Note On: E-4 @70.791664[6796]
Note Off: E-4 @71.166664[6832]
Note On: A-3 @71.34375[6849]
Note Off: A-3 @71.6875[6882]
Note On: E-4 @71.90625[6903]
Note Off: E-4 @72.239586[6935]
Note On: A-3 @72.447914[6955]
Note Off: A-3 @72.78125[6987]
Note On: E-4 @73.020836[7010]
Note Off: E-4 @73.354164[7042]
Note On: A-3 @73.5625[7062]
Note Off: A-3 @73.895836[7094]
Note On: E-4 @74.125[7116]
Note Off: E-4 @74.447914[7147]
Note On: A-3 @74.666664[7168]
Note Off: A-3 @74.90625[7191]
Note On: E-4 @75.208336[7220]
Note Off: E-4 @75.541664[7252]
Note On: A-3 @75.770836[7274]
Note Off: A-3 @75.96875[7293]
Note On: E-4 @76.291664[7324]
Note Off: E-4 @76.645836[7358]
Note On: A-3 @76.854164[7378]
Note Off: A-3 @77.166664[7408]
Note On: E-4 @77.40625[7431]
Note Off: E-4 @77.6875[7458]
Note On: A-3 @77.9375[7482]
Note Off: A-3 @78.229164[7510]
Note On: E-4 @78.489586[7535]
Note Off: E-4 @78.822914[7567]
Note On: A-3 @79.041664[7588]
Note Off: A-3 @79.34375[7617]
Note On: E-4 @79.583336[7640]
Note Off: E-4 @79.947914[7675]
Note On: A-3 @80.135414[7693]
Note Off: A-3 @80.46875[7725]
Note On: E-4 @80.6875[7746]
Note Off: E-4 @81.03125[7779]
Note On: A-3 @81.239586[7799]
Note Off: A-3 @81.572914[7831]
Note On: E-4 @81.791664[7852]
Note Off: E-4 @82.135414[7885]
Note On: A-3 @82.354164[7906]
Note Off: A-3 @82.614586[7931]
Note On: E-4 @82.90625[7959]
Note Off: E-4 @83.208336[7988]
Note On: A-3 @83.447914[8011]
Note Off: A-3 @83.760414[8041]
Note On: E-4 @84.0[8064]
Note Off: E-4 @84.354164[8098]
Note On: A-3 @84.5625[8118]
Note Off: A-3 @84.895836[8150]
Note On: E-4 @85.125[8172]
Note Off: E-4 @85.447914[8203]
Note On: A-3 @85.666664[8224]
Note Off: A-3 @85.947914[8251]
Note On: E-4 @86.229164[8278]
Note Off: E-4 @86.572914[8311]
Note On: A-3 @86.770836[8330]
Note Off: A-3 @87.135414[8365]
Note On: E-4 @87.34375[8385]
Note Off: E-4 @87.666664[8416]
Note On: A-3 @87.895836[8438]
Note Off: A-3 @88.145836[8462]
Note On: E-4 @88.458336[8492]
Note Off: E-4 @88.75[8520]
Note On: A-3 @88.989586[8543]
Note Off: A-3 @89.302086[8573]
Note On: E-4 @89.5625[8598]
Note Off: E-4 @89.895836[8630]
Note On: A-3 @90.114586[8651]
Note Off: A-3 @90.4375[8682]
Note On: E-4 @90.677086[8705]
Note Off: E-4 @91.0[8736]
Note On: A-3 @91.229164[8758]
Note Off: A-3 @91.46875[8781]
Note On: E-4 @91.791664[8812]
Note Off: E-4 @92.083336[8840]
Note On: A-3 @92.322914[8863]
Note Off: A-3 @92.645836[8894]
Note On: E-4 @92.885414[8917]
Note Off: E-4 @93.229164[8950]
Note On: A-3 @93.4375[8970]
Note Off: A-3 @93.760414[9001]
Note On: E-4 @93.979164[9022]
Note Off: E-4 @94.333336[9056]
Note On: A-3 @94.520836[9074]
Note Off: A-3 @94.854164[9106]
Note On: E-4 @95.083336[9128]
Note Off: E-4 @95.427086[9161]
Note On: A-3 @95.625[9180]
Note Off: A-3 @95.9375[9210]
Note On: E-4 @96.1875[9234]
Note Off: E-4 @96.520836[9266]
Note On: A-3 @96.729164[9286]
Note Off: A-3 @97.041664[9316]
Note On: E-4 @97.28125[9339]
Note Off: E-4 @97.614586[9371]
Note On: A-3 @97.833336[9392]
Note Off: A-3 @98.104164[9418]
Note On: E-4 @98.354164[9442]
Note Off: E-4 @98.708336[9476]
Note On: A-3 @98.916664[9496]
Note Off: A-3 @99.1875[9522]
Note On: E-4 @99.46875[9549]
Note Off: E-4 @99.8125[9582]
Note On: A-3 @100.020836[9602]
Note Off: A-3 @100.34375[9633]
Note On: E-4 @100.583336[9656]
Note Off: E-4 @100.927086[9689]
Note On: A-3 @101.135414[9709]
Note Off: A-3 @101.40625[9735]
Note On: E-4 @101.6875[9762]
Note Off: E-4 @102.020836[9794]
Note On: A-3 @102.239586[9815]
Note Off: A-3 @102.5[9840]
Note On: E-4 @102.802086[9869]
Note Off: E-4 @103.125[9900]
Note On: A-3 @103.333336[9920]
Note Off: A-3 @103.65625[9951]
Note On: E-4 @103.895836[9974]
Note Off: E-4 @104.229164[10006]
Note On: A-3 @104.458336[10028]
Note Off: A-3 @104.71875[10053]
Note On: E-4 @105.0[10080]
Note Off: E-4 @105.375[10116]
Note On: A-3 @105.572914[10135]
Note Off: A-3 @105.885414[10165]
Note On: E-4 @106.125[10188]
Note Off: E-4 @106.489586[10223]
Note On: A-3 @106.697914[10243]
Note Off: A-3 @107.03125[10275]
Note On: E-4 @107.260414[10297]
Note Off: E-4 @107.59375[10329]
Note On: A-3 @107.8125[10350]
Note Off: A-3 @108.125[10380]
Note On: E-4 @108.375[10404]
Note Off: E-4 @108.697914[10435]
Note On: A-3 @108.916664[10456]
Note Off: A-3 @109.229164[10486]
Note On: E-4 @109.489586[10511]
Note Off: E-4 @109.802086[10541]
Note On: A-3 @110.03125[10563]
Note Off: A-3 @110.260414[10585]
Note On: E-4 @110.572914[10615]
Note Off: E-4 @110.916664[10648]
Note On: A-3 @111.125[10668]
Note Off: A-3 @111.416664[10696]
Note On: E-4 @111.6875[10722]
Note Off: E-4 @111.979164[10750]
Note On: A-3 @112.229164[10774]
Note Off: A-3 @112.5625[10806]
Note On: E-4 @112.791664[10828]
Note Off: E-4 @113.114586[10859]
Note On: A-3 @113.333336[10880]
Note Off: A-3 @113.6875[10914]
Note On: E-4 @113.895836[10934]
Note Off: E-4 @114.239586[10967]
Note On: A-3 @114.447914[10987]
Note Off: A-3 @114.75[11016]
Note On: E-4 @115.010414[11041]
Note Off: E-4 @115.333336[11072]
Note On: A-3 @115.5625[11094]
Note Off: A-3 @115.833336[11120]
Note On: E-4 @116.114586[11147]
Note Off: E-4 @116.4375[11178]
Note On: A-3 @116.666664[11200]
Note Off: A-3 @116.916664[11224]
Note On: E-4 @117.229164[11254]
Note Off: E-4 @117.53125[11283]
Note On: A-3 @117.739586[11303]
Note Off: A-3 @118.0[11328]
Note On: E-4 @118.302086[11357]
Note Off: E-4 @118.614586[11387]
Note On: A-3 @118.854164[11410]
Note Off: A-3 @119.0625[11430]
Note On: E-4 @119.395836[11462]
Note Off: E-4 @119.697914[11491]
Note On: A-3 @119.90625[11511]
Note Off: A-3 @120.291664[11548]
Note On: E-4 @120.46875[11565]
Note Off: E-4 @120.822914[11599]
Note On: A-3 @121.03125[11619]
Note Off: A-3 @121.291664[11644]
Note On: E-4 @121.583336[11672]
Note Off: E-4 @121.916664[11704]
Note On: A-3 @122.135414[11725]
Note Off: A-3 @122.458336[11756]
Note On: E-4 @122.666664[11776]
Note Off: E-4 @123.03125[11811]
Note On: A-3 @123.229164[11830]
Note Off: A-3 @123.59375[11865]
Note On: E-4 @123.802086[11885]
Note Off: E-4 @124.125[11916]
Note On: A-3 @124.354164[11938]
Note Off: A-3 @124.604164[11962]
Note On: E-4 @124.916664[11992]
Note Off: E-4 @125.197914[12019]
Note On: A-3 @125.447914[12043]
Note Off: A-3 @125.708336[12068]
Note On: E-4 @126.020836[12098]
Note Off: E-4 @126.354164[12130]
Note On: A-3 @126.5625[12150]
Note Off: A-3 @126.885414[12181]
Note On: E-4 @127.114586[12203]
Note Off: E-4 @127.46875[12237]
Note On: A-3 @127.65625[12255]
Note Off: A-3 @128.0[12288]
Note On: E-4 @128.21875[12309]
Note Off: E-4 @128.5625[12342]
Note On: A-3 @128.76042[12361]
Note Off: A-3 @129.10417[12394]
Note On: E-4 @129.33333[12416]
Note Off: E-4 @129.60417[12442]
Note On: A-3 @129.84375[12465]
Note Off: A-3 @130.1875[12498]
Note On: E-4 @130.40625[12519]
Note Off: E-4 @130.77083[12554]
Note On: A-3 @130.95833[12572]
Note Off: A-3 @131.22917[12598]
Note On: E-4 @131.51042[12625]
Note Off: E-4 @131.84375[12657]
Note On: A-3 @132.07292[12679]
Note Off: A-3 @132.30208[12701]
Note On: E-4 @132.625[12732]
Note Off: E-4 @132.97917[12766]
Note On: A-3 @133.16667[12784]
Note Off: A-3 @133.51042[12817]
Note On: E-4 @133.72917[12838]
Note Off: E-4 @134.0625[12870]
Note On: A-3 @134.29167[12892]
Note Off: A-3 @134.5625[12918]
Note On: E-4 @134.85417[12946]
Note Off: E-4 @135.16667[12976]
Note On: A-3 @135.38542[12997]
Note Off: A-3 @135.625[13020]
Note On: E-4 @135.9375[13050]
Note Off: E-4 @136.27083[13082]
Note On: A-3 @136.47917[13102]
Note Off: A-3 @136.73958[13127]
Note On: E-4 @137.01042[13153]
Note Off: E-4 @137.33333[13184]
Note On: A-3 @137.55208[13205]
Note Off: A-3 @137.85417[13234]
Note On: E-4 @138.10417[13258]
Note Off: E-4 @138.44792[13291]
Note On: A-3 @138.63542[13309]
Note Off: A-3 @138.95833[13340]
Note On: E-4 @139.19792[13363]
Note Off: E-4 @139.52083[13394]
Note On: A-3 @139.75[13416]
Note Off: A-3 @140.04167[13444]
Note On: E-4 @140.3125[13470]
Note Off: E-4 @140.63542[13501]
Note On: A-3 @140.86458[13523]
Note Off: A-3 @141.13542[13549]
Note On: E-4 @141.42708[13577]
Note Off: E-4 @141.71875[13605]
Note On: A-3 @141.95833[13628]
Note Off: A-3 @142.27083[13658]
Note On: E-4 @142.51042[13681]
Note Off: E-4 @142.85417[13714]
Note On: A-3 @143.07292[13735]
Note Off: A-3 @143.38542[13765]
Note On: E-4 @143.61458[13787]
Note Off: E-4 @143.97917[13822]
Note On: A-3 @144.16667[13840]
Note Off: A-3 @144.48958[13871]
Note On: E-4 @144.71875[13893]
Note Off: E-4 @145.05208[13925]
Note On: A-3 @145.28125[13947]
Note Off: A-3 @145.60417[13978]
Note On: E-4 @145.8125[13998]
Note Off: E-4 @146.16667[14032]
Note On: A-3 @146.36458[14051]
Note Off: A-3 @146.6875[14082]
Note On: E-4 @146.91667[14104]
Note Off: E-4 @147.25[14136]
Note On: A-3 @147.46875[14157]
Note Off: A-3 @147.75[14184]
Note On: E-4 @148.03125[14211]
Note Off: E-4 @148.36458[14243]
Note On: A-3 @148.5625[14262]
Note Off: A-3 @148.89583[14294]
Note On: E-4 @149.125[14316]
Note Off: E-4 @149.46875[14349]
Note On: A-3 @149.65625[14367]
Note Off: A-3 @150.0[14400]
Note On: E-4 @150.22917[14422]
Note Off: E-4 @150.57292[14455]
Note On: A-3 @150.78125[14475]
Note Off: A-3 @151.09375[14505]
Note On: E-4 @151.33333[14528]
Note Off: E-4 @151.66667[14560]
Note On: A-3 @151.875[14580]
Note Off: A-3 @152.1875[14610]
Note On: E-4 @152.4375[14634]
Note Off: E-4 @152.78125[14667]
Note On: A-3 @152.98958[14687]
Note Off: A-3 @153.33333[14720]
Note On: E-4 @153.54167[14740]
Note Off: E-4 @153.90625[14775]
Note On: A-3 @154.10417[14794]
Note Off: A-3 @154.4375[14826]
Note On: E-4 @154.65625[14847]
Note Off: E-4 @155.01042[14881]
Note On: A-3 @155.21875[14901]
Note Off: A-3 @155.5[14928]
Note On: E-4 @155.77083[14954]
Note Off: E-4 @156.125[14988]
Note On: A-3 @156.32292[15007]
Note Off: A-3 @156.60417[15034]
Note On: E-4 @156.86458[15059]
Note Off: E-4 @157.21875[15093]
Note On: A-3 @157.41667[15112]
Note Off: A-3 @157.66667[15136]
Note On: E-4 @157.95833[15164]
Note Off: E-4 @158.27083[15194]
Note On: A-3 @158.5[15216]
Note Off: A-3 @158.8125[15246]
Note On: E-4 @159.04167[15268]
Note Off: E-4 @159.36458[15299]
Note On: A-3 @159.58333[15320]
Note Off: A-3 @159.89583[15350]
Note On: E-4 @160.14583[15374]
Note Off: E-4 @160.4375[15402]
Note On: A-3 @160.67708[15425]
Note Off: A-3 @160.95833[15452]
Note On: E-4 @161.21875[15477]
Note Off: E-4 @161.5625[15510]
Note On: A-3 @161.77083[15530]
Note Off: A-3 @162.01042[15553]
Note On: E-4 @162.3125[15582]
Note Off: E-4 @162.65625[15615]
Note On: A-3 @162.86458[15635]
Note Off: A-3 @163.13542[15661]
Note On: E-4 @163.41667[15688]
Note Off: E-4 @163.76042[15721]
Note On: A-3 @163.96875[15741]
Note Off: A-3 @164.33333[15776]
Note On: E-4 @164.54167[15796]
Note Off: E-4 @164.84375[15825]
Note On: A-3 @165.08333[15848]
Note Off: A-3 @165.36458[15875]
Note On: E-4 @165.61458[15899]
Note Off: E-4 @165.95833[15932]
Note On: A-3 @166.16667[15952]
Note Off: A-3 @166.46875[15981]
Note On: E-4 @166.71875[16005]
Note Off: E-4 @167.0625[16038]
Note On: A-3 @167.27083[16058]
Note Off: A-3 @167.60417[16090]
Note On: E-4 @167.82292[16111]
Note Off: E-4 @168.15625[16143]
Note On: A-3 @168.36458[16163]
Note Off: A-3 @168.64583[16190]
Note On: E-4 @168.91667[16216]
Note Off: E-4 @169.25[16248]
Note On: A-3 @169.44792[16267]
Note Off: A-3 @169.77083[16298]
Note On: E-4 @170.01042[16321]
Note Off: E-4 @170.32292[16351]
Note On: A-3 @170.54167[16372]
Note Off: A-3 @170.85417[16402]
Note On: E-4 @171.10417[16426]
Note Off: E-4 @171.42708[16457]
Note On: A-3 @171.64583[16478]
Note Off: A-3 @171.92708[16505]
Note On: E-4 @172.16667[16528]
Note Off: E-4 @172.51042[16561]
Note On: A-3 @172.69792[16579]
Note Off: A-3 @173.04167[16612]
Note On: E-4 @173.23958[16631]
Note Off: E-4 @173.57292[16663]
Note On: A-3 @173.79167[16684]
Note Off: A-3 @174.0625[16710]
Note On: E-4 @174.34375[16737]
Note Off: E-4 @174.65625[16767]
Note On: A-3 @174.88542[16789]
Note Off: A-3 @175.16667[16816]
Note On: E-4 @175.4375[16842]
Note Off: E-4 @175.77083[16874]
Note On: A-3 @175.97917[16894]
Note Off: A-3 @176.28125[16923]
Note On: E-4 @176.52083[16946]
Note Off: E-4 @176.85417[16978]
Note On: A-3 @177.0625[16998]
Note Off: A-3 @177.35417[17026]
Note On: E-4 @177.59375[17049]
Note Off: E-4 @177.91667[17080]
Note On: A-3 @178.13542[17101]
Note Off: A-3 @178.39583[17126]
Note On: E-4 @178.66667[17152]
Note Off: E-4 @179.0[17184]
Note On: A-3 @179.21875[17205]
Note Off: A-3 @179.5[17232]
Note On: E-4 @179.76042[17257]
Note Off: E-4 @180.08333[17288]
Note On: A-3 @180.3125[17310]
Note Off: A-3 @180.57292[17335]
Note On: E-4 @180.85417[17362]
Note Off: E-4 @181.1875[17394]
Note On: A-3 @181.39583[17414]
Note Off: A-3 @181.70833[17444]
Note On: E-4 @181.94792[17467]
Note Off: E-4 @182.27083[17498]
Note On: A-3 @182.5[17520]
Note Off: A-3 @182.77083[17546]
Note On: E-4 @183.04167[17572]
Note Off: E-4 @183.35417[17602]
Note On: A-3 @183.58333[17624]
Note Off: A-3 @183.84375[17649]
Note On: E-4 @184.125[17676]
Note Off: E-4 @184.47917[17710]
Note On: A-3 @184.67708[17729]
Note Off: A-3 @184.96875[17757]
Note On: E-4 @185.22917[17782]
Note Off: E-4 @185.5625[17814]
Note On: A-3 @185.76042[17833]
Note Off: A-3 @186.08333[17864]
Note On: E-4 @186.3125[17886]
Note Off: E-4 @186.63542[17917]
Note On: A-3 @186.85417[17938]
Note Off: A-3 @187.16667[17968]
Note On: E-4 @187.39583[17990]
Note Off: E-4 @187.75[18024]
Note On: A-3 @187.94792[18043]
Note Off: A-3 @188.22917[18070]
Note On: E-4 @188.47917[18094]
Note Off: E-4 @188.8125[18126]
Note On: A-3 @189.03125[18147]
Note Off: A-3 @189.33333[18176]
Note On: E-4 @189.58333[18200]
Note Off: E-4 @189.89583[18230]
Note On: A-3 @190.125[18252]
Note Off: A-3 @190.41667[18280]
Note On: E-4 @190.66667[18304]
Note Off: E-4 @190.98958[18335]
Note On: A-3 @191.19792[18355]
Note Off: A-3 @191.48958[18383]
Note On: E-4 @191.73958[18407]
Note Off: E-4 @192.0625[18438]
Note On: A-3 @192.27083[18458]
Note Off: A-3 @192.58333[18488]
Note On: E-4 @192.82292[18511]
Note Off: E-4 @193.14583[18542]
Note On: A-3 @193.35417[18562]
Note Off: A-3 @193.66667[18592]
Note On: E-4 @193.91667[18616]
Note Off: E-4 @194.25[18648]
Note On: A-3 @194.46875[18669]
Note Off: A-3 @194.77083[18698]
Note On: E-4 @195.02083[18722]
Note Off: E-4 @195.35417[18754]
Note On: A-3 @195.5625[18774]
Note Off: A-3 @195.88542[18805]
Note On: E-4 @196.11458[18827]
Note Off: E-4 @196.4375[18858]
Note On: A-3 @196.65625[18879]
Note Off: A-3 @196.96875[18909]
Note On: E-4 @197.19792[18931]
Note Off: E-4 @197.52083[18962]
Note On: A-3 @197.75[18984]
Note Off: A-3 @198.04167[19012]
Note On: E-4 @198.29167[19036]
Note Off: E-4 @198.60417[19066]
Note On: A-3 @198.82292[19087]
Note Off: A-3 @199.09375[19113]
Note On: E-4 @199.36458[19139]
Note Off: E-4 @199.6875[19170]
Note On: A-3 @199.90625[19191]
Note Off: A-3 @200.21875[19221]
Note On: E-4 @200.45833[19244]
Note Off: E-4 @200.78125[19275]
Note On: A-3 @200.98958[19295]
Note Off: A-3 @201.27083[19322]
Note On: E-4 @201.54167[19348]
Note Off: E-4 @201.85417[19378]
Note On: A-3 @202.07292[19399]
Note Off: A-3 @202.39583[19430]
Note On: E-4 @202.625[19452]
Note Off: E-4 @202.94792[19483]
Note On: A-3 @203.15625[19503]
Note Off: A-3 @203.46875[19533]
Note On: E-4 @203.69792[19555]
Note Off: E-4 @204.0625[19590]
Note On: A-3 @204.25[19608]
Note Off: A-3 @204.5625[19638]
Note On: E-4 @204.8125[19662]
Note Off: E-4 @205.10417[19690]
Note On: A-3 @205.33333[19712]
Note Off: A-3 @205.63542[19741]
Note On: E-4 @205.89583[19766]
Note Off: E-4 @206.17708[19793]
Note On: A-3 @206.4375[19818]
Note Off: A-3 @206.76042[19849]
Note On: E-4 @206.97917[19870]
Note Off: E-4 @207.34375[19905]
Note On: A-3 @207.52083[19922]
Note Off: A-3 @207.86458[19955]
Note On: E-4 @208.0625[19974]
Note Off: E-4 @208.39583[20006]
Note On: A-3 @208.61458[20027]
Note Off: A-3 @208.92708[20057]
Note On: E-4 @209.14583[20078]
Note Off: E-4 @209.47917[20110]
Note On: A-3 @209.69792[20131]
Note Off: A-3 @210.04167[20164]
Note On: E-4 @210.23958[20183]
Note Off: E-4 @210.57292[20215]
Note On: A-3 @210.79167[20236]
Note Off: A-3 @211.08333[20264]
Note On: E-4 @211.32292[20287]
Note Off: E-4 @211.64583[20318]
Note On: A-3 @211.85417[20338]
Note Off: A-3 @212.19792[20371]
Note On: E-4 @212.39583[20390]
Note Off: E-4 @212.76042[20425]
Note On: A-3 @212.9375[20442]
Note Off: A-3 @213.29167[20476]
Note On: E-4 @213.5[20496]
Note Off: E-4 @213.84375[20529]
Note On: A-3 @214.04167[20548]
Note Off: A-3 @214.36458[20579]
Note On: E-4 @214.59375[20601]
Note Off: E-4 @214.9375[20634]
Note On: A-3 @215.13542[20653]
Note Off: A-3 @215.47917[20686]
Note On: E-4 @215.6875[20706]
Note Off: E-4 @216.04167[20740]
Note On: A-3 @216.22917[20758]
Note Off: A-3 @216.5625[20790]
Note On: E-4 @216.79167[20812]
Note Off: E-4 @217.125[20844]
Note On: A-3 @217.32292[20863]
Note Off: A-3 @217.66667[20896]
Note On: E-4 @217.88542[20917]
Note Off: E-4 @218.21875[20949]
Note On: A-3 @218.42708[20969]
Note Off: A-3 @218.77083[21002]
Note On: E-4 @218.97917[21022]
Note Off: E-4 @219.32292[21055]
Note On: A-3 @219.53125[21075]
Note Off: A-3 @219.84375[21105]
Note On: E-4 @220.07292[21127]
Note Off: E-4 @220.42708[21161]
Note On: A-3 @220.63542[21181]
Note Off: A-3 @220.91667[21208]
Note On: E-4 @221.16667[21232]
Note Off: E-4 @221.53125[21267]
Note On: A-3 @221.72917[21286]
Note Off: A-3 @222.04167[21316]
Note On: E-4 @222.28125[21339]
Note Off: E-4 @222.63542[21373]
Note On: A-3 @222.84375[21393]
Note Off: A-3 @223.14583[21422]
Note On: E-4 @223.39583[21446]
Note Off: E-4 @223.75[21480]
Note On: A-3 @223.95833[21500]
Note Off: A-3 @224.29167[21532]
Note On: E-4 @224.52083[21554]
Note Off: E-4 @224.86458[21587]
Note On: A-3 @225.07292[21607]
Note Off: A-3 @225.375[21636]
Note On: E-4 @225.625[21660]
Note Off: E-4 @225.95833[21692]
Note On: A-3 @226.1875[21714]
Note Off: A-3 @226.53125[21747]
Note On: E-4 @226.72917[21766]
Note Off: E-4 @227.10417[21802]
Note On: A-3 @227.29167[21820]
Note Off: A-3 @227.57292[21847]
Note On: E-4 @227.83333[21872]
Note Off: E-4 @228.14583[21902]
Note On: A-3 @228.38542[21925]
Note Off: A-3 @228.71875[21957]
Note On: E-4 @228.94792[21979]
Note Off: E-4 @229.27083[22010]
Note On: A-3 @229.48958[22031]
Note Off: A-3 @229.83333[22064]
Note On: E-4 @230.03125[22083]
Note Off: E-4 @230.38542[22117]
Note On: A-3 @230.58333[22136]
Note Off: A-3 @230.9375[22170]
Note On: E-4 @231.14583[22190]
Note Off: E-4 @231.5[22224]
Note On: A-3 @231.6875[22242]
Note Off: A-3 @232.04167[22276]
Note On: E-4 @232.25[22296]
Note Off: E-4 @232.60417[22330]
Note On: A-3 @232.80208[22349]
Note Off: A-3 @233.14583[22382]
Note On: E-4 @233.35417[22402]
Note Off: E-4 @233.70833[22436]
Note On: A-3 @233.89583[22454]
Note Off: A-3 @234.25[22488]
Note On: E-4 @234.45833[22508]
Note Off: E-4 @234.80208[22541]
Note On: A-3 @235.01042[22561]
Note Off: A-3 @235.34375[22593]
Note On: E-4 @235.55208[22613]
Note Off: E-4 @235.92708[22649]
Note On: A-3 @236.10417[22666]
Note Off: A-3 @236.44792[22699]
Note On: E-4 @236.66667[22720]
Note Off: E-4 @236.97917[22750]
Note On: A-3 @237.20833[22772]
Note Off: A-3 @237.51042[22801]
Note On: E-4 @237.75[22824]
Note Off: E-4 @238.08333[22856]
Note On: A-3 @238.29167[22876]
Note Off: A-3 @238.60417[22906]
Note On: E-4 @238.85417[22930]
Note Off: E-4 @239.1875[22962]
Note On: A-3 @239.40625[22983]
Note Off: A-3 @239.70833[23012]
Note On: E-4 @239.95833[23036]
Note Off: E-4 @240.30208[23069]
Note On: A-3 @240.52083[23090]
Note Off: A-3 @240.83333[23120]
Note On: E-4 @241.0625[23142]
Note Off: E-4 @241.41667[23176]
Note On: A-3 @241.63542[23197]
Note Off: A-3 @241.92708[23225]
Note On: E-4 @242.1875[23250]
Note Off: E-4 @242.53125[23283]
Note On: A-3 @242.73958[23303]
Note Off: A-3 @243.0625[23334]
Note On: E-4 @243.27083[23354]
Note Off: E-4 @243.61458[23387]
Note On: A-3 @243.82292[23407]
Note Off: A-3 @244.15625[23439]
Note On: E-4 @244.375[23460]
Note Off: E-4 @244.70833[23492]
Note On: A-3 @244.92708[23513]
Note Off: A-3 @245.23958[23543]
Note On: E-4 @245.46875[23565]
Note Off: E-4 @245.82292[23599]
Note On: A-3 @246.02083[23618]
Note Off: A-3 @246.34375[23649]
Note On: E-4 @246.57292[23671]
Note Off: E-4 @246.91667[23704]
Note On: A-3 @247.125[23724]
Note Off: A-3 @247.44792[23755]
Note On: E-4 @247.67708[23777]
Note Off: E-4 @248.03125[23811]
Note On: A-3 @248.21875[23829]
Note Off: A-3 @248.5625[23862]
Note On: E-4 @248.78125[23883]
Note Off: E-4 @249.11458[23915]
Note On: A-3 @249.32292[23935]
Note Off: A-3 @249.65625[23967]
Note On: E-4 @249.86458[23987]
Note Off: E-4 @250.21875[24021]
Note On: A-3 @250.41667[24040]
Note Off: A-3 @250.75[24072]
Note On: E-4 @250.96875[24093]
Note Off: E-4 @251.3125[24126]
Note On: A-3 @251.52083[24146]
Note Off: A-3 @251.83333[24176]
Note On: E-4 @252.0625[24198]
Note Off: E-4 @252.39583[24230]
Note On: A-3 @252.60417[24250]
Note Off: A-3 @252.94792[24283]
Note On: E-4 @253.14583[24302]
Note Off: E-4 @253.51042[24337]
Note On: A-3 @253.69792[24355]
Note Off: A-3 @254.01042[24385]
Note On: E-4 @254.23958[24407]
Note Off: E-4 @254.60417[24442]
Note On: A-3 @254.79167[24460]
Note Off: A-3 @255.09375[24489]
Note On: E-4 @255.35417[24514]
Note Off: E-4 @255.69792[24547]
Note On: A-3 @255.90625[24567]
Note Off: A-3 @256.22916[24598]
Note On: E-4 @256.46875[24621]
Note Off: E-4 @256.8125[24654]
Note On: A-3 @257.02084[24674]
Note Off: A-3 @257.33334[24704]
Note On: E-4 @257.5625[24726]
Note Off: E-4 @257.90625[24759]
Note On: A-3 @258.125[24780]
Note Off: A-3 @258.4375[24810]
Note On: E-4 @258.6771[24833]
Note Off: E-4 @259.0104[24865]
Note On: A-3 @259.21875[24885]
Note Off: A-3 @259.54166[24916]
Note On: E-4 @259.78125[24939]
Note Off: E-4 @260.10416[24970]
Note On: A-3 @260.3125[24990]
Note Off: A-3 @260.625[25020]
Note On: E-4 @260.8646[25043]
Note Off: E-4 @261.21875[25077]
Note On: A-3 @261.41666[25096]
Note Off: A-3 @261.72916[25126]
Note On: E-4 @261.96875[25149]
Note Off: E-4 @262.3021[25181]
Note On: A-3 @262.5[25200]
Note Off: A-3 @262.79166[25228]
Note On: E-4 @263.0625[25254]
Note Off: E-4 @263.39584[25286]
Note On: A-3 @263.60416[25306]
Note Off: A-3 @263.9479[25339]
Note On: E-4 @264.16666[25360]
Note Off: E-4 @264.52084[25394]
Note On: A-3 @264.71875[25413]
Note Off: A-3 @265.04166[25444]
Note On: E-4 @265.2604[25465]
Note Off: E-4 @265.6354[25501]
Note On: A-3 @265.8125[25518]
Note Off: A-3 @266.1354[25549]
Note On: E-4 @266.3646[25571]
Note Off: E-4 @266.71875[25605]
Note On: A-3 @266.90625[25623]
Note Off: A-3 @267.27084[25658]
Note On: E-4 @267.47916[25678]
Note Off: E-4 @267.84375[25713]
Note On: A-3 @268.0104[25729]
Note Off: A-3 @268.35416[25762]
Note On: E-4 @268.58334[25784]
Note Off: E-4 @268.91666[25816]
Note On: A-3 @269.1146[25835]
Note Off: A-3 @269.4375[25866]
Note On: E-4 @269.64584[25886]
Note Off: E-4 @269.9896[25919]
Note On: A-3 @270.20834[25940]
Note Off: A-3 @270.47916[25966]
Note On: E-4 @270.7396[25991]
Note Off: E-4 @271.0625[26022]
Note On: A-3 @271.27084[26042]
Note Off: A-3 @271.58334[26072]
Note On: E-4 @271.8125[26094]
Note Off: E-4 @272.16666[26128]
Note On: A-3 @272.35416[26146]
Note Off: A-3 @272.6875[26178]
Note On: E-4 @272.90625[26199]
Note Off: E-4 @273.2396[26231]
Note On: A-3 @273.4479[26251]
Note Off: A-3 @273.75[26280]
Note On: E-4 @273.97916[26302]
Note Off: E-4 @274.34375[26337]
Note On: A-3 @274.52084[26354]
Note Off: A-3 @274.85416[26386]
Note On: E-4 @275.0521[26405]
Note Off: E-4 @275.40625[26439]
Note On: A-3 @275.58334[26456]
Note Off: A-3 @275.91666[26488]
Note On: E-4 @276.125[26508]
Note Off: E-4 @276.47916[26542]
Note On: A-3 @276.66666[26560]
Note Off: A-3 @276.9896[26591]
Note On: E-4 @277.22916[26614]
Note Off: E-4 @277.5521[26645]
Note On: A-3 @277.77084[26666]
Note Off: A-3 @278.10416[26698]
Note On: E-4 @278.3125[26718]
Note Off: E-4 @278.6354[26749]
Note On: A-3 @278.84375[26769]
Note Off: A-3 @279.15625[26799]
Note On: E-4 @279.39584[26822]
Note Off: E-4 @279.71875[26853]
Note On: A-3 @279.9271[26873]
Note Off: A-3 @280.25[26904]
Note On: E-4 @280.47916[26926]
Note Off: E-4 @280.8021[26957]
Note On: A-3 @281.02084[26978]
Note Off: A-3 @281.3021[27005]
Note On: E-4 @281.5625[27030]
Note Off: E-4 @281.90625[27063]
Note On: A-3 @282.08334[27080]
Note Off: A-3 @282.4479[27115]
Note On: E-4 @282.625[27132]
Note Off: E-4 @282.96875[27165]
Note On: A-3 @283.1875[27186]
Note Off: A-3 @283.5[27216]
Note On: E-4 @283.71875[27237]
Note Off: E-4 @284.0625[27270]
Note On: A-3 @284.25[27288]
Note Off: A-3 @284.59375[27321]
Note On: E-4 @284.78125[27339]
Note Off: E-4 @285.1146[27371]
Note On: A-3 @285.3021[27389]
Note Off: A-3 @285.625[27420]
Note On: E-4 @285.875[27444]
Note Off: E-4 @286.1875[27474]
Note On: A-3 @286.41666[27496]
Note Off: A-3 @286.70834[27524]
Note On: E-4 @286.9479[27547]
Note Off: E-4 @287.28125[27579]
Note On: A-3 @287.4896[27599]
Note Off: A-3 @287.8021[27629]
Note On: E-4 @288.04166[27652]
Note Off: E-4 @288.35416[27682]
Note On: A-3 @288.5625[27702]
Note Off: A-3 @288.875[27732]
Note On: E-4 @289.125[27756]
Note Off: E-4 @289.4479[27787]
Note On: A-3 @289.65625[27807]
Note Off: A-3 @289.96875[27837]
Note On: E-4 @290.1875[27858]
Note Off: E-4 @290.53125[27891]
Note On: A-3 @290.72916[27910]
Note Off: A-3 @291.04166[27940]
Note On: E-4 @291.27084[27962]
Note Off: E-4 @291.60416[27994]
Note On: A-3 @291.8021[28013]
Note Off: A-3 @292.10416[28042]
Note On: E-4 @292.33334[28064]
Note Off: E-4 @292.6875[28098]
Note On: A-3 @292.8646[28115]
Note Off: A-3 @293.16666[28144]
Note On: E-4 @293.39584[28166]
Note Off: E-4 @293.70834[28196]
Note On: A-3 @293.9271[28217]
Note Off: A-3 @294.2396[28247]
Note On: E-4 @294.46875[28269]
Note Off: E-4 @294.8021[28301]
Note On: A-3 @295.0[28320]
Note Off: A-3 @295.28125[28347]
Note On: E-4 @295.5521[28373]
Note Off: E-4 @295.875[28404]
Note On: A-3 @296.0729[28423]
Note Off: A-3 @296.39584[28454]
Note On: E-4 @296.6146[28475]
Note Off: E-4 @296.9375[28506]
Note On: A-3 @297.14584[28526]
Note Off: A-3 @297.4479[28555]
Note On: E-4 @297.6875[28578]
Note Off: E-4 @298.0104[28609]
Note On: A-3 @298.22916[28630]
Note Off: A-3 @298.5104[28657]
Note On: E-4 @298.77084[28682]
Note Off: E-4 @299.10416[28714]
Note On: A-3 @299.3125[28734]
Note Off: A-3 @299.59375[28761]
Note On: E-4 @299.83334[28784]
Note Off: E-4 @300.1875[28818]
Note On: A-3 @300.375[28836]
Note Off: A-3 @300.70834[28868]
Note On: E-4 @300.9375[28890]
Note Off: E-4 @301.2604[28921]
Note On: A-3 @301.46875[28941]
Note Off: A-3 @301.78125[28971]
Note On: E-4 @302.02084[28994]
Note Off: E-4 @302.35416[29026]
Note On: A-3 @302.5729[29047]
Note Off: A-3 @302.8854[29077]
Note On: E-4 @303.1146[29099]
Note Off: E-4 @303.47916[29134]
Note On: A-3 @303.66666[29152]
Note Off: A-3 @304.0[29184]
Note On: E-4 @304.22916[29206]
Note Off: E-4 @304.5625[29238]
Note On: A-3 @304.77084[29258]
Note Off: A-3 @305.08334[29288]
Note On: E-4 @305.3229[29311]
Note Off: E-4 @305.64584[29342]
Note On: A-3 @305.8646[29363]
Note Off: A-3 @306.125[29388]
Note On: E-4 @306.40625[29415]
Note Off: E-4 @306.77084[29450]
Note On: A-3 @306.95834[29468]
Note Off: A-3 @307.3229[29503]
Note On: E-4 @307.5[29520]
Note Off: E-4 @307.83334[29552]
Note On: A-3 @308.04166[29572]
Note Off: A-3 @308.3646[29603]
Note On: E-4 @308.58334[29624]
Note Off: E-4 @308.9271[29657]
Note On: A-3 @309.14584[29678]
Note Off: A-3 @309.40625[29703]
Note On: E-4 @309.6875[29730]
Note Off: E-4 @309.9896[29759]
Note On: A-3 @310.20834[29780]
Note Off: A-3 @310.53125[29811]
Note On: E-4 @310.77084[29834]
Note Off: E-4 @311.09375[29865]
Note On: A-3 @311.3125[29886]
Note Off: A-3 @311.625[29916]
Note On: E-4 @311.85416[29938]
Note Off: E-4 @312.1771[29969]
Note On: A-3 @312.3854[29989]
Note Off: A-3 @312.70834[30020]
Note On: E-4 @312.9375[30042]
Note Off: E-4 @313.29166[30076]
Note On: A-3 @313.47916[30094]
Note Off: A-3 @313.8229[30127]
Note On: E-4 @314.03125[30147]
Note Off: E-4 @314.375[30180]
Note On: A-3 @314.5729[30199]
Note Off: A-3 @314.89584[30230]
Note On: E-4 @315.1146[30251]
Note Off: E-4 @315.45834[30284]
Note On: A-3 @315.66666[30304]
Note Off: A-3 @315.9479[30331]
Note On: E-4 @316.21875[30357]
Note Off: E-4 @316.5729[30391]
Note On: A-3 @316.77084[30410]
Note Off: A-3 @317.0625[30438]
Note On: E-4 @317.3229[30463]
Note Off: E-4 @317.65625[30495]
Note On: A-3 @317.8646[30515]
Note Off: A-3 @318.1875[30546]
Note On: E-4 @318.41666[30568]
Note Off: E-4 @318.78125[30603]
Note On: A-3 @318.96875[30621]
Note Off: A-3 @319.3125[30654]
Note On: E-4 @319.53125[30675]
Note Off: E-4 @319.875[30708]
Note On: A-3 @320.08334[30728]
Note Off: A-3 @320.3646[30755]
Note On: E-4 @320.6354[30781]
Note Off: E-4 @321.0[30816]
Note On: A-3 @321.1875[30834]
Note Off: A-3 @321.5521[30869]
Note On: E-4 @321.7604[30889]
Note Off: E-4 @322.1354[30925]
Note On: A-3 @322.3125[30942]
Note Off: A-3 @322.66666[30976]
Note On: E-4 @322.875[30996]
Note Off: E-4 @323.25[31032]
Note On: A-3 @323.4479[31051]
Note Off: A-3 @323.77084[31082]
Note On: E-4 @324.0[31104]
Note Off: E-4 @324.375[31140]
Note On: A-3 @324.5521[31157]
Note Off: A-3 @324.91666[31192]
Note On: E-4 @325.1354[31213]
Note Off: E-4 @325.47916[31246]
Note On: A-3 @325.6875[31266]
Note Off: A-3 @325.97916[31294]
Note On: E-4 @326.21875[31317]
Note Off: E-4 @326.59375[31353]
Note On: A-3 @326.77084[31370]
Note Off: A-3 @327.14584[31406]
Note On: E-4 @327.375[31428]
Note Off: E-4 @327.71875[31461]
Note On: A-3 @327.9375[31482]
Note Off: A-3 @328.22916[31510]
Note On: E-4 @328.5[31536]
Note Off: E-4 @328.84375[31569]
Note On: A-3 @329.08334[31592]
Note Off: A-3 @329.33334[31616]
Note On: E-4 @329.6354[31645]
Note Off: E-4 @329.97916[31678]
Note On: A-3 @330.1771[31697]
Note Off: A-3 @330.52084[31730]
Note On: E-4 @330.75[31752]
Note Off: E-4 @331.10416[31786]
Note On: A-3 @331.3021[31805]
Note Off: A-3 @331.625[31836]
Note On: E-4 @331.85416[31858]
Note Off: E-4 @332.1875[31890]
Note On: A-3 @332.39584[31910]
Note Off: A-3 @332.72916[31942]
Note On: E-4 @332.9479[31963]
Note Off: E-4 @333.29166[31996]
Note On: A-3 @333.5[32016]
Note Off: A-3 @333.85416[32050]
Note On: E-4 @334.0625[32070]
Note Off: E-4 @334.4375[32106]
Note On: A-3 @334.625[32124]
Note Off: A-3 @334.95834[32156]
Note On: E-4 @335.1771[32177]
Note Off: E-4 @335.54166[32212]
Note On: A-3 @335.75[32232]
Note Off: A-3 @336.04166[32260]
Note On: E-4 @336.29166[32284]
Note Off: E-4 @336.65625[32319]
Note On: A-3 @336.84375[32337]
Note Off: A-3 @337.1771[32369]
Note On: E-4 @337.39584[32390]
Note Off: E-4 @337.71875[32421]
Note On: A-3 @337.9375[32442]
Note Off: A-3 @338.2604[32473]
Note On: E-4 @338.5[32496]
Note Off: E-4 @338.84375[32529]
Note On: A-3 @339.0521[32549]
Note Off: A-3 @339.39584[32582]
Note On: E-4 @339.6146[32603]
Note Off: E-4 @339.95834[32636]
Note On: A-3 @340.14584[32654]
Note Off: A-3 @340.46875[32685]
Note On: E-4 @340.70834[32708]
Note Off: E-4 @341.04166[32740]
Note On: A-3 @341.2396[32759]
Note Off: A-3 @341.58334[32792]
Note On: E-4 @341.79166[32812]
Note Off: E-4 @342.14584[32846]
Note On: A-3 @342.34375[32865]
Note Off: A-3 @342.6979[32899]
Note On: E-4 @342.90625[32919]
Note Off: E-4 @343.27084[32954]
Note On: A-3 @343.46875[32973]
Note Off: A-3 @343.7396[32999]
Note On: E-4 @344.0104[33025]
Note Off: E-4 @344.375[33060]
Note On: A-3 @344.5625[33078]
Note Off: A-3 @344.8854[33109]
Note On: E-4 @345.1354[33133]
Note Off: E-4 @345.47916[33166]
Note On: A-3 @345.6875[33186]
Note Off: A-3 @346.02084[33218]
Note On: E-4 @346.25[33240]
Note Off: E-4 @346.58334[33272]
Note On: A-3 @346.8021[33293]
Note Off: A-3 @347.125[33324]
Note On: E-4 @347.35416[33346]
Note Off: E-4 @347.71875[33381]
Note On: A-3 @347.91666[33400]
Note Off: A-3 @348.2604[33433]
Note On: E-4 @348.47916[33454]
Note Off: E-4 @348.8229[33487]
Note On: A-3 @349.03125[33507]
Note Off: A-3 @349.35416[33538]
Note On: E-4 @349.60416[33562]
Note Off: E-4 @349.9375[33594]
Note On: A-3 @350.14584[33614]
Note Off: A-3 @350.47916[33646]
Note On: E-4 @350.70834[33668]
Note Off: E-4 @351.0625[33702]
Note On: A-3 @351.27084[33722]
Note Off: A-3 @351.53125[33747]
Note On: E-4 @351.79166[33772]
Note Off: E-4 @352.14584[33806]
Note On: A-3 @352.35416[33826]
Note Off: A-3 @352.65625[33855]
Note On: E-4 @352.89584[33878]
Note Off: E-4 @353.20834[33908]
Note On: A-3 @353.4479[33931]
Note Off: A-3 @353.71875[33957]
Note On: E-4 @353.97916[33982]
Note Off: E-4 @354.3229[34015]
Note On: A-3 @354.52084[34034]
Note Off: A-3 @354.85416[34066]
Note On: E-4 @355.10416[34090]
Note Off: E-4 @355.40625[34119]
Note On: A-3 @355.64584[34142]
Note Off: A-3 @356.0[34176]
Note On: E-4 @356.21875[34197]
Note Off: E-4 @356.5625[34230]
Note On: A-3 @356.77084[34250]
Note Off: A-3 @357.09375[34281]
Note On: E-4 @357.3125[34302]
Note Off: E-4 @357.66666[34336]
Note On: A-3 @357.85416[34354]
Note Off: A-3 @358.16666[34384]
Note On: E-4 @358.39584[34406]
Note Off: E-4 @358.77084[34442]
Note On: A-3 @358.95834[34460]
Note Off: A-3 @359.29166[34492]
Note On: E-4 @359.5104[34513]
Note Off: E-4 @359.8646[34547]
Note On: A-3 @360.04166[34564]
Note Off: A-3 @360.39584[34598]
Note On: E-4 @360.6146[34619]
Note Off: E-4 @360.9479[34651]
Note On: A-3 @361.14584[34670]
Note Off: A-3 @361.47916[34702]
Note On: E-4 @361.6875[34722]
Note Off: E-4 @362.0625[34758]
Note On: A-3 @362.25[34776]
Note Off: A-3 @362.58334[34808]
Note On: E-4 @362.8021[34829]
Note Off: E-4 @363.14584[34862]
Note On: A-3 @363.3646[34883]
Note Off: A-3 @363.6771[34913]
Note On: E-4 @363.90625[34935]
Note Off: E-4 @364.27084[34970]
Note On: A-3 @364.47916[34990]
Note Off: A-3 @364.77084[35018]
Note On: E-4 @365.04166[35044]
Note Off: E-4 @365.375[35076]
Note On: A-3 @365.5729[35095]
Note Off: A-3 @365.91666[35128]
Note On: E-4 @366.1146[35147]
Note Off: E-4 @366.47916[35182]
Note On: A-3 @366.66666[35200]
Note Off: A-3 @366.96875[35229]
Note On: E-4 @367.21875[35253]
Note Off: E-4 @367.53125[35283]
Note On: A-3 @367.7604[35305]
Note Off: A-3 @368.0729[35335]
Note On: E-4 @368.3229[35359]
Note Off: E-4 @368.66666[35392]
Note On: A-3 @368.8646[35411]
Note Off: A-3 @369.22916[35446]
Note On: E-4 @369.4375[35466]
Note Off: E-4 @369.77084[35498]
Note On: A-3 @369.97916[35518]
Note Off: A-3 @370.3229[35551]
Note On: E-4 @370.52084[35570]
Note Off: E-4 @370.875[35604]
Note On: A-3 @371.04166[35620]
Note Off: A-3 @371.4375[35658]
Note On: E-4 @371.60416[35674]
Note Off: E-4 @372.0[35712]
Note On: A-3 @372.16666[35728]
Note Off: A-3 @372.54166[35764]
Note On: E-4 @372.71875[35781]
Note Off: E-4 @373.10416[35818]
Note On: A-3 @373.29166[35836]
Note Off: A-3 @373.65625[35871]
Note On: E-4 @373.84375[35889]
Note Off: E-4 @374.1875[35922]
Note On: A-3 @374.3854[35941]
Note Off: A-3 @374.70834[35972]
Note On: E-4 @374.9271[35993]
Note Off: E-4 @375.27084[36026]
Note On: A-3 @375.4896[36047]
Note Off: A-3 @375.8021[36077]
Note On: E-4 @376.03125[36099]
Note Off: E-4 @376.375[36132]
Note On: A-3 @376.58334[36152]
Note Off: A-3 @376.8646[36179]
Note On: E-4 @377.125[36204]
Note Off: E-4 @377.4896[36239]
Note On: A-3 @377.6875[36258]
Note Off: A-3 @378.03125[36291]
Note On: E-4 @378.25[36312]
Note Off: E-4 @378.60416[36346]
Note On: A-3 @378.8021[36365]
Note Off: A-3 @379.1354[36397]
Note On: E-4 @379.35416[36418]
Note Off: E-4 @379.6979[36451]
Note On: A-3 @379.91666[36472]
Note Off: A-3 @380.14584[36494]
Note On: E-4 @380.4479[36523]
Note Off: E-4 @380.78125[36555]
Note On: A-3 @380.97916[36574]
Note Off: A-3 @381.29166[36604]
Note On: E-4 @381.52084[36626]
Note Off: E-4 @381.85416[36658]
Note On: A-3 @382.0625[36678]
Note Off: A-3 @382.3854[36709]
Note On: E-4 @382.6146[36731]
Note Off: E-4 @382.97916[36766]
Note On: A-3 @383.15625[36783]
Note Off: A-3 @383.4896[36815]
Note On: E-4 @383.70834[36836]
Note Off: E-4 @384.04166[36868]
Note On: A-3 @384.25[36888]
Note Off: A-3 @384.5729[36919]
Note On: E-4 @384.79166[36940]
Note Off: E-4 @385.14584[36974]
Note On: A-3 @385.34375[36993]
Note Off: A-3 @385.6771[37025]
Note On: E-4 @385.89584[37046]
Note Off: E-4 @386.21875[37077]
Note On: A-3 @386.4375[37098]
Note Off: A-3 @386.77084[37130]
Note On: E-4 @386.9896[37151]
Note Off: E-4 @387.3229[37183]
Note On: A-3 @387.53125[37203]
Note Off: A-3 @387.875[37236]
Note On: E-4 @388.08334[37256]
Note Off: E-4 @388.39584[37286]
Note On: A-3 @388.60416[37306]
Note Off: A-3 @388.9479[37339]
Note On: E-4 @389.15625[37359]
Note Off: E-4 @389.5104[37393]
Note On: A-3 @389.6979[37411]
Note Off: A-3 @390.02084[37442]
Note On: E-4 @390.25[37464]
Note Off: E-4 @390.6146[37499]
Note On: A-3 @390.8021[37517]
Note Off: A-3 @391.1354[37549]
Note On: E-4 @391.35416[37570]
Note Off: E-4 @391.6979[37603]
Note On: A-3 @391.89584[37622]
Note Off: A-3 @392.2604[37657]
Note On: E-4 @392.4479[37675]
Note Off: E-4 @392.8021[37709]
Note On: A-3 @393.02084[37730]
Note Off: A-3 @393.29166[37756]
Note On: E-4 @393.5625[37782]
Note Off: E-4 @393.9271[37817]
Note On: A-3 @394.10416[37834]
Note Off: A-3 @394.4375[37866]
Note On: E-4 @394.65625[37887]
Note Off: E-4 @395.0[37920]
Note On: A-3 @395.20834[37940]
Note Off: A-3 @395.5521[37973]
Note On: E-4 @395.75[37992]
Note Off: E-4 @396.09375[38025]
Note On: A-3 @396.29166[38044]
Note Off: A-3 @396.6146[38075]
Note On: E-4 @396.83334[38096]
Note Off: E-4 @397.1771[38129]
Note On: A-3 @397.375[38148]
Note Off: A-3 @397.6979[38179]
Note On: E-4 @397.91666[38200]
Note Off: E-4 @398.25[38232]
Note On: A-3 @398.4479[38251]
Note Off: A-3 @398.7396[38279]
Note On: E-4 @398.97916[38302]
Note Off: E-4 @399.3229[38335]
Note On: A-3 @399.5104[38353]
Note Off: A-3 @399.85416[38386]
Note On: E-4 @400.0625[38406]
Note Off: E-4 @400.4271[38441]
Note On: A-3 @400.6146[38459]
Note Off: A-3 @400.97916[38494]
Note On: E-4 @401.1771[38513]
Note Off: E-4 @401.52084[38546]
Note On: A-3 @401.70834[38564]
Note Off: A-3 @402.0625[38598]
Note On: E-4 @402.2604[38617]
Note Off: E-4 @402.625[38652]
Note On: A-3 @402.8021[38669]
Note Off: A-3 @403.16666[38704]
Note On: E-4 @403.375[38724]
Note Off: E-4 @403.6979[38755]
Note On: A-3 @403.91666[38776]
Note Off: A-3 @404.20834[38804]
Note On: E-4 @404.45834[38828]
Note Off: E-4 @404.8021[38861]
Note On: A-3 @404.97916[38878]
Note Off: A-3 @405.33334[38912]
Note On: E-4 @405.53125[38931]
Note Off: E-4 @405.875[38964]
Note On: A-3 @406.08334[38984]
Note Off: A-3 @406.3854[39013]
Note On: E-4 @406.6146[39035]
Note Off: E-4 @406.9896[39071]
Note On: A-3 @407.16666[39088]
Note Off: A-3 @407.5104[39121]
Note On: E-4 @407.71875[39141]
Note Off: E-4 @408.09375[39177]
Note On: A-3 @408.27084[39194]
Note Off: A-3 @408.6146[39227]
Note On: E-4 @408.8125[39246]
Note Off: E-4 @409.1875[39282]
Note On: A-3 @409.375[39300]
Note Off: A-3 @409.625[39324]
Note On: E-4 @409.96875[39357]
Note Off: E-4 @410.27084[39386]
Note On: A-3 @410.47916[39406]
Note Off: A-3 @410.78125[39435]
Note On: E-4 @411.02084[39458]
Note Off: E-4 @411.4271[39497]
Note On: A-3 @411.58334[39512]
Note Off: A-3 @411.96875[39549]
Note On: E-4 @412.14584[39566]
Note Off: E-4 @412.52084[39602]
Note On: A-3 @412.70834[39620]
Note Off: A-3 @413.09375[39657]
Note On: E-4 @413.27084[39674]
Note Off: E-4 @413.66666[39712]
Note On: A-3 @413.83334[39728]
Note Off: A-3 @414.20834[39764]
Note On: E-4 @414.40625[39783]
Note Off: E-4 @414.77084[39818]
Note On: A-3 @414.95834[39836]
Note Off: A-3 @415.3125[39870]
Note On: E-4 @415.52084[39890]
Note Off: E-4 @415.875[39924]
Note On: A-3 @416.0625[39942]
Note Off: A-3 @416.4375[39978]
Note On: E-4 @416.6354[39997]
Note Off: E-4 @417.02084[40034]
Note On: A-3 @417.1875[40050]
Note Off: A-3 @417.5625[40086]
Note On: E-4 @417.7604[40105]
Note Off: E-4 @418.1146[40139]
Note On: A-3 @418.3229[40159]
Note Off: A-3 @418.6771[40193]
Note On: E-4 @418.89584[40214]
Note Off: E-4 @419.2604[40249]
Note On: A-3 @419.4479[40267]
Note Off: A-3 @419.8125[40302]
Note On: E-4 @420.02084[40322]
Note Off: E-4 @420.3646[40355]
Note On: A-3 @420.5729[40375]
Note Off: A-3 @420.91666[40408]
Note On: E-4 @421.1354[40429]
Note Off: E-4 @421.5[40464]
Note On: A-3 @421.6875[40482]
Note Off: A-3 @422.03125[40515]
Note On: E-4 @422.25[40536]
Note Off: E-4 @422.625[40572]
Note On: A-3 @422.8125[40590]
Note Off: A-3 @423.14584[40622]
Note On: E-4 @423.375[40644]
Note Off: E-4 @423.7396[40679]
Note On: A-3 @423.9479[40699]
Note Off: A-3 @424.29166[40732]
Note On: E-4 @424.5104[40753]
Note Off: E-4 @424.875[40788]
Note On: A-3 @425.0625[40806]
Note Off: A-3 @425.4479[40843]
Note On: E-4 @425.6354[40861]
Note Off: E-4 @426.02084[40898]
Note On: A-3 @426.21875[40917]
Note Off: A-3 @426.5729[40951]
Note On: E-4 @426.78125[40971]
Note Off: E-4 @427.16666[41008]
Note On: A-3 @427.35416[41026]
Note Off: A-3 @427.71875[41061]
Note On: E-4 @427.9271[41081]
Note Off: E-4 @428.28125[41115]
Note On: A-3 @428.5[41136]
Note Off: A-3 @428.8021[41165]
Note On: E-4 @429.0521[41189]
Note Off: E-4 @429.4271[41225]
Note On: A-3 @429.6146[41243]
Note Off: A-3 @429.97916[41278]
Note On: E-4 @430.1875[41298]
Note Off: E-4 @430.5521[41333]
Note On: A-3 @430.75[41352]
Note Off: A-3 @431.08334[41384]
Note On: E-4 @431.3125[41406]
Note Off: E-4 @431.65625[41439]
Note On: A-3 @431.875[41460]
Note Off: A-3 @432.20834[41492]
Note On: E-4 @432.4375[41514]
Note Off: E-4 @432.77084[41546]
Note On: A-3 @432.97916[41566]
Note Off: A-3 @433.33334[41600]
Note On: E-4 @433.54166[41620]
Note Off: E-4 @433.91666[41656]
Note On: A-3 @434.125[41676]
Note Off: A-3 @434.47916[41710]
Note On: E-4 @434.6771[41729]
Note Off: E-4 @435.04166[41764]
Note On: A-3 @435.2396[41783]
Note Off: A-3 @435.59375[41817]
Note On: E-4 @435.8125[41838]
Note Off: E-4 @436.16666[41872]
Note On: A-3 @436.375[41892]
Note Off: A-3 @436.6979[41923]
Note On: E-4 @436.9479[41947]
Note Off: E-4 @437.3125[41982]
Note On: A-3 @437.5[42000]
Note Off: A-3 @437.84375[42033]
Note On: E-4 @438.0625[42054]
Note Off: E-4 @438.41666[42088]
Note On: A-3 @438.6146[42107]
Note Off: A-3 @438.95834[42140]
Note On: E-4 @439.16666[42160]
Note Off: E-4 @439.52084[42194]
Note On: A-3 @439.70834[42212]
Note Off: A-3 @440.0625[42246]
Note On: E-4 @440.2604[42265]
Note Off: E-4 @440.64584[42302]
Note On: A-3 @440.8229[42319]
Note Off: A-3 @441.1771[42353]
Note On: E-4 @441.3854[42373]
Note Off: E-4 @441.75[42408]
Note On: A-3 @441.9479[42427]
Note Off: A-3 @442.29166[42460]
Note On: E-4 @442.5104[42481]
Note Off: E-4 @442.875[42516]
Note On: A-3 @443.0729[42535]
Note Off: A-3 @443.40625[42567]
Note On: E-4 @443.64584[42590]
Note Off: E-4 @443.96875[42621]
Note On: A-3 @444.1979[42643]
Note Off: A-3 @444.52084[42674]
Note On: E-4 @444.75[42696]
Note Off: E-4 @445.10416[42730]
Note On: A-3 @445.3125[42750]
Note Off: A-3 @445.65625[42783]
Note On: E-4 @445.8646[42803]
Note Off: E-4 @446.22916[42838]
Note On: A-3 @446.41666[42856]
Note Off: A-3 @446.79166[42892]
Note On: E-4 @447.0[42912]
Note Off: E-4 @447.35416[42946]
Note On: A-3 @447.5625[42966]
Note Off: A-3 @447.91666[43000]
Note On: E-4 @448.125[43020]
Note Off: E-4 @448.5[43056]
Note On: A-3 @448.6875[43074]
Note Off: A-3 @449.0625[43110]
Note On: E-4 @449.27084[43130]
Note Off: E-4 @449.64584[43166]
Note On: A-3 @449.83334[43184]
Note Off: A-3 @450.16666[43216]
Note On: E-4 @450.39584[43238]
Note Off: E-4 @450.7604[43273]
Note On: A-3 @450.95834[43292]
Note Off: A-3 @451.3125[43326]
Note On: E-4 @451.52084[43346]
Note Off: E-4 @451.8854[43381]
Note On: A-3 @452.08334[43400]
Note Off: A-3 @452.4271[43433]
Note On: E-4 @452.64584[43454]
Note Off: E-4 @453.0[43488]
Note On: A-3 @453.20834[43508]
Note Off: A-3 @453.5521[43541]
Note On: E-4 @453.78125[43563]
Note Off: E-4 @454.14584[43598]
Note On: A-3 @454.34375[43617]
Note Off: A-3 @454.66666[43648]
Note On: E-4 @454.91666[43672]
Note Off: E-4 @455.27084[43706]
Note On: A-3 @455.47916[43726]
Note Off: A-3 @455.79166[43756]
Note On: E-4 @456.03125[43779]
Note Off: E-4 @456.41666[43816]
Note On: A-3 @456.60416[43834]
Note Off: A-3 @456.875[43860]
Note On: E-4 @457.14584[43886]
Note Off: E-4 @457.52084[43922]
Note On: A-3 @457.6979[43939]
Note Off: A-3 @458.02084[43970]
Note On: E-4 @458.2604[43993]
Note Off: E-4 @458.6146[44027]
Note On: A-3 @458.8125[44046]
Note Off: A-3 @459.16666[44080]
Note On: E-4 @459.3646[44099]
Note Off: E-4 @459.72916[44134]
Note On: A-3 @459.9375[44154]
Note Off: A-3 @460.28125[44187]
Note On: E-4 @460.4896[44207]
Note Off: E-4 @460.85416[44242]
Note On: A-3 @461.04166[44260]
Note Off: A-3 @461.40625[44295]
Note On: E-4 @461.6146[44315]
Note Off: E-4 @461.9896[44351]
Note On: A-3 @462.1875[44370]
Note Off: A-3 @462.5104[44401]
Note On: E-4 @462.7396[44423]
Note Off: E-4 @463.08334[44456]
Note On: A-3 @463.29166[44476]
Note Off: A-3 @463.59375[44505]
Note On: E-4 @463.83334[44528]
Note Off: E-4 @464.1979[44563]
Note On: A-3 @464.3854[44581]
Note Off: A-3 @464.7604[44617]
Note On: E-4 @464.96875[44637]
Note Off: E-4 @465.34375[44673]
Note On: A-3 @465.53125[44691]
Note Off: A-3 @465.875[44724]
Note On: E-4 @466.09375[44745]
Note Off: E-4 @466.45834[44780]
Note On: A-3 @466.65625[44799]
Note Off: A-3 @466.97916[44830]
Note On: E-4 @467.21875[44853]
Note Off: E-4 @467.5625[44886]
Note On: A-3 @467.77084[44906]
Note Off: A-3 @468.0729[44935]
Note On: E-4 @468.33334[44960]
Note Off: E-4 @468.6771[44993]
Note On: A-3 @468.8854[45013]
Note Off: A-3 @469.2396[45047]
Note On: E-4 @469.4479[45067]
Note Off: E-4 @469.79166[45100]
Note On: A-3 @470.0104[45121]
Note Off: A-3 @470.3229[45151]
Note On: E-4 @470.5729[45175]
Note Off: E-4 @470.91666[45208]
Note On: A-3 @471.14584[45230]
Note Off: A-3 @471.39584[45254]
Note On: E-4 @471.6875[45282]
Note Off: E-4 @472.0625[45318]
Note On: A-3 @472.2604[45337]
Note Off: A-3 @472.59375[45369]
Note On: E-4 @472.8229[45391]
Note Off: E-4 @473.14584[45422]
Note On: A-3 @473.35416[45442]
Note Off: A-3 @473.58334[45464]
Note On: E-4 @473.8854[45493]
Note Off: E-4 @474.2396[45527]
Note On: A-3 @474.4271[45545]
Note Off: A-3 @474.75[45576]
Note On: E-4 @474.9896[45599]
Note Off: E-4 @475.28125[45627]
Note On: A-3 @475.52084[45650]
Note Off: A-3 @475.875[45684]
Note On: E-4 @476.0729[45703]
Note Off: E-4 @476.4479[45739]
Note On: A-3 @476.625[45756]
Note Off: A-3 @476.97916[45790]
Note On: E-4 @477.1875[45810]
Note Off: E-4 @477.54166[45844]
Note On: A-3 @477.75[45864]
Note Off: A-3 @478.0104[45889]
Note On: E-4 @478.3021[45917]
Note Off: E-4 @478.66666[45952]
Note On: A-3 @478.84375[45969]
Note Off: A-3 @479.1875[46002]
Note On: E-4 @479.39584[46022]
Note Off: E-4 @479.72916[46054]
Note On: A-3 @479.9375[46074]
Note Off: A-3 @480.2604[46105]
Note On: E-4 @480.5[46128]
Note Off: E-4 @480.8125[46158]
Note On: A-3 @481.04166[46180]
Note Off: A-3 @481.35416[46210]
Note On: E-4 @481.60416[46234]
Note Off: E-4 @481.9375[46266]
Note On: A-3 @482.14584[46286]
Note Off: A-3 @482.45834[46316]
Note On: E-4 @482.6979[46339]
Note Off: E-4 @483.03125[46371]
Note On: A-3 @483.25[46392]
Note Off: A-3 @483.47916[46414]
Note On: E-4 @483.79166[46444]
Note Off: E-4 @484.16666[46480]
Note On: A-3 @484.33334[46496]
Note Off: A-3 @484.6771[46529]
Note On: E-4 @484.89584[46550]
Note Off: E-4 @485.25[46584]
Note On: A-3 @485.4375[46602]
Note Off: A-3 @485.78125[46635]
Note On: E-4 @486.0104[46657]
Note Off: E-4 @486.35416[46690]
Note On: A-3 @486.54166[46708]
Note Off: A-3 @486.8854[46741]
Note On: E-4 @487.10416[46762]
Note Off: E-4 @487.41666[46792]
Note On: A-3 @487.64584[46814]
Note Off: A-3 @487.91666[46840]
Note On: E-4 @488.1979[46867]
Note Off: E-4 @488.5625[46902]
Note On: A-3 @488.75[46920]
Note Off: A-3 @489.08334[46952]
Note On: E-4 @489.3021[46973]
Note Off: E-4 @489.65625[47007]
Note On: A-3 @489.85416[47026]
Note Off: A-3 @490.16666[47056]
Note On: E-4 @490.41666[47080]
Note Off: E-4 @490.72916[47110]
Note On: A-3 @490.95834[47132]
Note Off: A-3 @491.2396[47159]
Note On: E-4 @491.5[47184]
Note Off: E-4 @491.875[47220]
Note On: A-3 @492.0729[47239]
Note Off: A-3 @492.29166[47260]
Note On: E-4 @492.625[47292]
Note Off: E-4 @492.91666[47320]
Note On: A-3 @493.14584[47342]
Note Off: A-3 @493.5104[47377]
Note On: E-4 @493.71875[47397]
Note Off: E-4 @494.0521[47429]
Note On: A-3 @494.27084[47450]
Note Off: A-3 @494.5729[47479]
Note On: E-4 @494.8125[47502]
Note Off: E-4 @495.16666[47536]
Note On: A-3 @495.375[47556]
Note Off: A-3 @495.6771[47585]
Note On: E-4 @495.91666[47608]
Note Off: E-4 @496.28125[47643]
Note On: A-3 @496.46875[47661]
Note Off: A-3 @496.8125[47694]
Note On: E-4 @497.03125[47715]
Note Off: E-4 @497.3854[47749]
Note On: A-3 @497.58334[47768]
Note Off: A-3 @497.91666[47800]
Note On: E-4 @498.125[47820]
Note Off: E-4 @498.47916[47854]
Note On: A-3 @498.6875[47874]
Note Off: A-3 @498.91666[47896]
Note On: E-4 @499.2396[47927]
Note Off: E-4 @499.5625[47958]
Note On: A-3 @499.7604[47977]
Note Off: A-3 @500.10416[48010]
Note On: E-4 @500.3125[48030]
Note Off: E-4 @500.6354[48061]
Note On: A-3 @500.85416[48082]
Note Off: A-3 @501.1979[48115]
Note On: E-4 @501.40625[48135]
Note Off: E-4 @501.75[48168]
Note On: A-3 @501.95834[48188]
Note Off: A-3 @502.25[48216]
Note On: E-4 @502.5104[48241]
Note Off: E-4 @502.84375[48273]
Note On: A-3 @503.0625[48294]
Note Off: A-3 @503.35416[48322]
Note On: E-4 @503.60416[48346]
Note Off: E-4 @503.9375[48378]
Note On: A-3 @504.14584[48398]
Note Off: A-3 @504.4896[48431]
Note On: E-4 @504.70834[48452]
Note Off: E-4 @505.08334[48488]
Note On: A-3 @505.27084[48506]
Note Off: A-3 @505.60416[48538]
Note On: E-4 @505.83334[48560]
Note Off: E-4 @506.14584[48590]
Note On: A-3 @506.375[48612]
Note Off: A-3 @506.72916[48646]
Note On: E-4 @506.9271[48665]
Note Off: E-4 @507.27084[48698]
Note On: A-3 @507.47916[48718]
Note Off: A-3 @507.77084[48746]
Note On: E-4 @508.02084[48770]
Note Off: E-4 @508.33334[48800]
Note On: A-3 @508.5625[48822]
Note Off: A-3 @508.90625[48855]
Note On: E-4 @509.1354[48877]
Note Off: E-4 @509.47916[48910]
Note On: A-3 @509.64584[48926]
Note Off: A-3 @510.0[48960]
Note On: E-4 @510.2396[48983]
Note Off: E-4 @510.54166[49012]
Note On: A-3 @510.79166[49036]
Note Off: A-3 @511.0729[49063]
Note On: E-4 @511.3229[49087]
Note Off: E-4 @511.66666[49120]
Note On: A-3 @511.8854[49141]
Note Off: A-3 @512.11456[49163]
Note On: E-4 @512.42706[49193]
Note Off: E-4 @512.76044[49225]
Note On: A-3 @513.0[49248]
Note Off: A-3 @513.23956[49271]
Note On: E-4 @513.5417[49300]
Note Off: E-4 @513.9167[49336]
Note On: A-3 @514.1042[49354]
Note Off: A-3 @514.4167[49384]
Note On: E-4 @514.67706[49409]
Note Off: E-4 @515.0[49440]
Note On: A-3 @515.21875[49461]
Note Off: A-3 @515.53125[49491]
Note On: E-4 @515.78125[49515]
Note Off: E-4 @516.11456[49547]
Note On: A-3 @516.3542[49570]
Note Off: A-3 @516.7083[49604]
Note On: E-4 @516.9167[49624]
Note Off: E-4 @517.2708[49658]
Note On: A-3 @517.46875[49677]
Note Off: A-3 @517.8333[49712]
Note On: E-4 @518.05206[49733]
Note Off: E-4 @518.375[49764]
Note On: A-3 @518.625[49788]
Note Off: A-3 @519.125[49836]
Note On: A-3 @522.9583[50204]
Note Off: A-3 @523.11456[50219]
Note On: A-4 @528.25[50712]
Note Off: A-4 @528.32294[50719]
Note On: A-4 @528.3958[50726]
Note Off: A-4 @528.4792[50734]
Note On: A-4 @528.5417[50740]
Note Off: A-4 @528.625[50748]
